<mxfile host="65bd71144e">
    <diagram id="zfjYP5W1yW102qiNKC9Q" name="Page-1">
        <mxGraphModel dx="1837" dy="1110" grid="1" gridSize="10" guides="1" tooltips="1" connect="1" arrows="1" fold="1" page="1" pageScale="1" pageWidth="850" pageHeight="1100" math="0" shadow="0">
            <root>
                <mxCell id="0"/>
                <mxCell id="1" parent="0"/>
                <mxCell id="2" value="show all product&lt;div&gt;&lt;br&gt;&lt;/div&gt;&lt;div&gt;Read&lt;/div&gt;" style="rounded=0;whiteSpace=wrap;html=1;" vertex="1" parent="1">
                    <mxGeometry x="150" y="320" width="180" height="250" as="geometry"/>
                </mxCell>
                <mxCell id="3" value="update a product&lt;div&gt;&lt;br&gt;&lt;/div&gt;&lt;div&gt;Update&lt;/div&gt;" style="rounded=0;whiteSpace=wrap;html=1;" vertex="1" parent="1">
                    <mxGeometry x="150" y="690" width="180" height="250" as="geometry"/>
                </mxCell>
                <mxCell id="4" value="&lt;div&gt;create a product&lt;/div&gt;&lt;div&gt;&lt;br&gt;&lt;/div&gt;&lt;div&gt;Create&lt;/div&gt;" style="rounded=0;whiteSpace=wrap;html=1;" vertex="1" parent="1">
                    <mxGeometry x="390" y="320" width="180" height="250" as="geometry"/>
                </mxCell>
                <mxCell id="5" value="delete a product&lt;div&gt;&lt;br&gt;&lt;/div&gt;&lt;div&gt;Delete&lt;/div&gt;" style="rounded=0;whiteSpace=wrap;html=1;" vertex="1" parent="1">
                    <mxGeometry x="390" y="690" width="180" height="250" as="geometry"/>
                </mxCell>
                <mxCell id="7" value="&lt;div&gt;product details&lt;/div&gt;&lt;div&gt;&lt;br&gt;&lt;/div&gt;&lt;div&gt;Read&lt;/div&gt;" style="rounded=0;whiteSpace=wrap;html=1;" vertex="1" parent="1">
                    <mxGeometry x="-120" y="470" width="180" height="250" as="geometry"/>
                </mxCell>
                <mxCell id="8" value="connection to database" style="text;html=1;align=center;verticalAlign=middle;resizable=0;points=[];autosize=1;strokeColor=none;fillColor=none;" vertex="1" parent="1">
                    <mxGeometry x="165" y="360" width="150" height="30" as="geometry"/>
                </mxCell>
                <mxCell id="9" value="connection to database" style="text;html=1;align=center;verticalAlign=middle;resizable=0;points=[];autosize=1;strokeColor=none;fillColor=none;" vertex="1" parent="1">
                    <mxGeometry x="405" y="258" width="150" height="30" as="geometry"/>
                </mxCell>
                <mxCell id="10" value="connection to database" style="text;html=1;align=center;verticalAlign=middle;resizable=0;points=[];autosize=1;strokeColor=none;fillColor=none;" vertex="1" parent="1">
                    <mxGeometry x="165" y="640" width="150" height="30" as="geometry"/>
                </mxCell>
                <mxCell id="11" value="connection to database" style="text;html=1;align=center;verticalAlign=middle;resizable=0;points=[];autosize=1;strokeColor=none;fillColor=none;" vertex="1" parent="1">
                    <mxGeometry x="405" y="640" width="150" height="30" as="geometry"/>
                </mxCell>
                <mxCell id="12" value="connection to database" style="text;html=1;align=center;verticalAlign=middle;resizable=0;points=[];autosize=1;strokeColor=none;fillColor=none;" vertex="1" parent="1">
                    <mxGeometry x="-105" y="420" width="150" height="30" as="geometry"/>
                </mxCell>
            </root>
        </mxGraphModel>
    </diagram>
</mxfile>